<?xml version="1.0" encoding="utf-8"?>
<!-- Generator: Adobe Illustrator 23.1.0, SVG Export Plug-In . SVG Version: 6.00 Build 0)  -->
<svg version="1.1" id="Слой_2" xmlns="http://www.w3.org/2000/svg" x="0px" y="0px"
	 viewBox="0 0 25 25" style="enable-background:new 0 0 25 25;" xml:space="preserve">
<style type="text/css">
	.st0{fill:#FFFFFF;}
</style>
<path class="st0" d="M12.5,24.8c-0.4,0-0.7-0.1-1.1-0.2l-6.6-2.7c-0.7-0.3-1.2-0.8-1.5-1.5l-2.7-6.6c-0.3-0.7-0.3-1.5,0-2.2l2.7-6.6
	c0.3-0.7,0.8-1.2,1.5-1.5l6.6-2.7c0.7-0.3,1.5-0.3,2.2,0l6.6,2.7c0.7,0.3,1.2,0.8,1.5,1.5l2.7,6.6c0.3,0.7,0.3,1.5,0,2.2l-2.7,6.6
	c-0.3,0.7-0.8,1.2-1.5,1.5l-6.6,2.7C13.2,24.7,12.9,24.8,12.5,24.8z M4.8,5.5l-2.7,6.6C2,12.4,2,12.7,2.1,13l2.7,6.6
	c0.1,0.3,0.3,0.5,0.6,0.6l6.6,2.7c0.3,0.1,0.6,0.1,0.9,0l6.6-2.7c0.3-0.1,0.5-0.3,0.6-0.6l2.7-6.6c0.1-0.3,0.1-0.6,0-0.9l-2.7-6.6
	C20,5.2,19.8,5,19.6,4.9l-6.6-2.7c-0.3-0.1-0.6-0.1-0.9,0L5.4,4.9C5.2,5,5,5.2,4.8,5.5L4.8,5.5z"/>
<path class="st0" d="M12.5,20.9c-0.3,0-0.7-0.1-1-0.2l-4-1.7c-0.6-0.3-1.2-0.8-1.4-1.4l-1.7-4c-0.3-0.7-0.3-1.4,0-2l1.7-4
	c0.3-0.7,0.8-1.2,1.4-1.4l4-1.7c0.7-0.3,1.4-0.3,2,0l4,1.7c0.7,0.3,1.2,0.8,1.4,1.4l1.7,4c0.3,0.7,0.3,1.4,0,2l-1.7,4
	c-0.3,0.7-0.8,1.2-1.4,1.4l-4,1.7C13.2,20.8,12.8,20.9,12.5,20.9z M12.5,5.6c-0.2,0-0.3,0-0.5,0.1L8,7.4C7.7,7.5,7.5,7.8,7.3,8.1
	l0,0l-1.7,4c-0.1,0.3-0.1,0.7,0,1l1.7,4c0.1,0.3,0.4,0.6,0.7,0.7l4,1.7c0.3,0.1,0.7,0.1,1,0l4-1.7c0.3-0.1,0.6-0.4,0.7-0.7l1.7-4
	c0.1-0.3,0.1-0.7,0-1l-1.7-4c-0.1-0.3-0.4-0.6-0.7-0.7l-4-1.7C12.8,5.7,12.7,5.6,12.5,5.6z"/>
</svg>
