<?xml version="1.0" encoding="UTF-8"?>
<svg id="Layer_2" data-name="Layer 2" xmlns="http://www.w3.org/2000/svg" viewBox="0 0 140.12 140.12">
  <defs>
    <style>
      .cls-1 {
        fill: #fff;
        stroke-width: 0px;
      }
    </style>
  </defs>
  <g id="Layer_1-2" data-name="Layer 1">
    <path class="cls-1" d="m69.77,140.12c-.79,0-1.58-.16-2.32-.47l-45.21-18.97c-1.47-.62-2.63-1.79-3.23-3.26L.45,72.04c-.6-1.47-.59-3.12.02-4.59L19.44,22.23c.62-1.47,1.79-2.63,3.26-3.23L68.08.45c1.47-.6,3.12-.59,4.59.02l45.21,18.97c1.47.62,2.63,1.79,3.23,3.26l18.56,45.38c.6,1.47.59,3.12-.02,4.59l-18.97,45.21c-.62,1.47-1.79,2.63-3.26,3.23l-45.38,18.56c-.73.3-1.5.45-2.27.45Zm-40.6-29.54l40.63,17.05,40.78-16.67,17.05-40.63-16.67-40.78-40.63-17.05L29.54,29.17l-17.05,40.63,16.67,40.78Z"/>
    <polygon class="cls-1" points="91.5 41.56 76.21 41.56 76.21 41.56 70.06 47.7 64.05 41.56 48.62 41.56 35.6 54.65 35.6 71.78 70.06 107.11 104.52 71.78 104.52 54.65 91.5 41.56"/>
  </g>
</svg>