<svg width="28" height="28" viewBox="0 0 28 28" fill="none" xmlns="http://www.w3.org/2000/svg">
<path d="M13.5717 25.7299C12.78 25.7299 11.9771 25.4246 11.3777 24.8252L9.4437 22.9139C8.9687 22.4389 8.31279 22.1787 7.64553 22.1787H6.78599C4.44492 22.1787 2.54492 20.2901 2.54492 17.9716V5.63289C2.54492 3.31444 4.44492 1.42578 6.78599 1.42578H20.3574C22.6985 1.42578 24.5985 3.31444 24.5985 5.63289V17.9716C24.5985 20.2901 22.6985 22.1787 20.3574 22.1787H19.4979C18.8306 22.1787 18.1747 22.4502 17.6997 22.9139L15.7658 24.8252C15.1664 25.4246 14.3634 25.7299 13.5717 25.7299ZM6.78599 3.11089C5.38361 3.11089 4.24135 4.24181 4.24135 5.62157V17.9603C4.24135 19.3514 5.38361 20.471 6.78599 20.471H7.64553C8.76517 20.471 9.85084 20.9234 10.6425 21.7037L12.5765 23.6151C13.1306 24.1579 14.0241 24.1579 14.5783 23.6151L16.5122 21.7037C17.3038 20.9234 18.3896 20.471 19.5092 20.471H20.3574C21.7598 20.471 22.9021 19.3401 22.9021 17.9603V5.62157C22.9021 4.2305 21.7598 3.11089 20.3574 3.11089H6.78599Z" fill="white"/>
<path d="M13.5712 12.158C11.6486 12.158 10.0879 10.5973 10.0879 8.67469C10.0879 6.75207 11.6486 5.19141 13.5712 5.19141C15.4939 5.19141 17.0546 6.75207 17.0546 8.67469C17.0546 10.5973 15.4939 12.158 13.5712 12.158ZM13.5712 6.88784C12.5873 6.88784 11.7843 7.69076 11.7843 8.67469C11.7843 9.65862 12.5873 10.4616 13.5712 10.4616C14.5552 10.4616 15.3582 9.65862 15.3582 8.67469C15.3582 7.69076 14.5552 6.88784 13.5712 6.88784Z" fill="white"/>
<path d="M18.0951 18.5591C17.6314 18.5591 17.2468 18.1745 17.2468 17.7108C17.2468 16.1501 15.5956 14.8722 13.5712 14.8722C11.5468 14.8722 9.89565 16.1501 9.89565 17.7108C9.89565 18.1745 9.51112 18.5591 9.04743 18.5591C8.58374 18.5591 8.19922 18.1745 8.19922 17.7108C8.19922 15.2114 10.6081 13.1758 13.5712 13.1758C16.5343 13.1758 18.9433 15.2114 18.9433 17.7108C18.9433 18.1745 18.5587 18.5591 18.0951 18.5591Z" fill="white"/>
</svg>
