<svg width="28" height="28" viewBox="0 0 28 28" fill="none" xmlns="http://www.w3.org/2000/svg">
<path d="M13.5715 18.9438C13.1191 18.9438 12.6668 18.9099 12.237 18.8307C9.83938 18.4801 7.65664 17.1004 6.27688 15.0533C5.31557 13.6057 4.80664 11.9206 4.80664 10.1789C4.80664 5.34978 8.74235 1.41406 13.5715 1.41406C18.4007 1.41406 22.3364 5.34978 22.3364 10.1789C22.3364 11.9206 21.8275 13.6057 20.8662 15.0533C19.4751 17.1117 17.2924 18.4801 14.8721 18.842C14.4763 18.9099 14.0239 18.9438 13.5715 18.9438ZM13.5715 3.11049C9.66974 3.11049 6.50307 6.27716 6.50307 10.1789C6.50307 11.5926 6.91021 12.9498 7.67926 14.1033C8.7989 15.7545 10.5519 16.8629 12.4971 17.1456C13.2209 17.27 13.9334 17.27 14.6007 17.1456C16.5799 16.8629 18.3328 15.7432 19.4525 14.092C20.2215 12.9385 20.6287 11.5813 20.6287 10.1676C20.64 6.27715 17.4733 3.11049 13.5715 3.11049Z" fill="white"/>
<path d="M7.31727 25.548C7.15894 25.548 7.01191 25.5254 6.85358 25.4915C6.11846 25.3218 5.55299 24.7563 5.38334 24.0212L4.98751 22.3587C4.96489 22.2569 4.88572 22.1778 4.77263 22.1438L2.90656 21.7028C2.20537 21.5331 1.6512 21.0129 1.45894 20.323C1.26668 19.6331 1.45894 18.8867 1.96787 18.3778L6.37858 13.9671C6.55953 13.7861 6.80834 13.6956 7.05715 13.7183C7.30596 13.7409 7.53215 13.8766 7.67918 14.0915C8.79882 15.7426 10.5518 16.8623 12.5083 17.145C13.2322 17.2694 13.9447 17.2694 14.6119 17.145C16.5911 16.8623 18.3441 15.7426 19.4637 14.0915C19.5994 13.8766 19.8369 13.7409 20.0857 13.7183C20.3345 13.6956 20.5833 13.7861 20.7643 13.9671L25.175 18.3778C25.6839 18.8867 25.8762 19.6331 25.6839 20.323C25.4917 21.0129 24.9262 21.5444 24.2363 21.7028L22.3702 22.1438C22.2685 22.1665 22.1893 22.2456 22.1554 22.3587L21.7595 24.0212C21.5899 24.7563 21.0244 25.3218 20.2893 25.4915C19.5542 25.6724 18.7964 25.4123 18.3214 24.8355L13.5714 19.373L8.82144 24.8468C8.43691 25.2992 7.89406 25.548 7.31727 25.548ZM6.88751 15.8671L3.16668 19.5879C3.06489 19.6897 3.0762 19.8028 3.09882 19.8706C3.11013 19.9272 3.16668 20.0403 3.30239 20.0629L5.16846 20.504C5.90358 20.6736 6.46906 21.2391 6.6387 21.9742L7.03453 23.6367C7.06846 23.7837 7.18156 23.829 7.24941 23.8516C7.31727 23.8629 7.43037 23.8742 7.53215 23.7611L11.8637 18.7736C9.94108 18.4004 8.17679 17.3712 6.88751 15.8671ZM15.2792 18.7623L19.6107 23.7385C19.7125 23.8629 19.8369 23.8629 19.9048 23.8403C19.9726 23.829 20.0744 23.7724 20.1197 23.6254L20.5155 21.9629C20.6851 21.2278 21.2506 20.6623 21.9857 20.4927L23.8518 20.0516C23.9875 20.0177 24.0441 19.9159 24.0554 19.8593C24.078 19.8028 24.0893 19.6784 23.9875 19.5766L20.2667 15.8557C18.9661 17.3599 17.2131 18.3891 15.2792 18.7623Z" fill="white"/>
<path d="M15.709 14.5776C15.415 14.5776 15.0644 14.4985 14.6459 14.2497L13.5715 13.605L12.4971 14.2383C11.5132 14.8264 10.8686 14.4872 10.6311 14.3175C10.3936 14.1479 9.88463 13.6389 10.1447 12.5193L10.4162 11.3544L9.51141 10.5175C9.01379 10.0199 8.83284 9.42049 9.00248 8.87763C9.17213 8.33477 9.66974 7.95024 10.3709 7.83714L11.5811 7.63358L12.1578 6.36692C12.4858 5.72227 12.9947 5.36035 13.5715 5.36035C14.1483 5.36035 14.6686 5.73359 14.9852 6.37824L15.6525 7.71275L16.7721 7.84846C17.462 7.96156 17.9596 8.34606 18.1406 8.88892C18.3102 9.43177 18.1293 10.0312 17.6317 10.5288L16.693 11.4675L16.987 12.5193C17.2471 13.6389 16.7382 14.1479 16.5007 14.3175C16.3763 14.4193 16.1049 14.5776 15.709 14.5776ZM10.8686 9.48836L11.6489 10.2687C12.0108 10.6306 12.1918 11.2413 12.0787 11.7389L11.8638 12.6437L12.7686 12.1121C13.2549 11.8294 13.9108 11.8294 14.3858 12.1121L15.2906 12.6437L15.087 11.7389C14.9739 11.23 15.1436 10.6306 15.5055 10.2687L16.2858 9.48836L15.3019 9.31868C14.8269 9.23952 14.3519 8.88895 14.137 8.45918L13.5715 7.35084L13.0061 8.48179C12.8025 8.90024 12.3275 9.26216 11.8525 9.34133L10.8686 9.48836Z" fill="white"/>
</svg>
