<svg width="26" height="24" viewBox="0 0 26 24" fill="none" xmlns="http://www.w3.org/2000/svg">
<path d="M8.37514 19.6551C8.37514 21.0728 7.25425 22.2225 5.87192 22.2225H4.01689C2.63456 22.2225 1.51367 21.0728 1.51367 19.6551V12.1973C1.51403 10.7795 2.63492 9.62988 4.01726 9.62988H5.87228C7.25462 9.62988 8.3755 10.7795 8.3755 12.1973L8.37514 19.6551ZM6.9307 12.1973C6.9307 11.5977 6.45656 11.1114 5.87192 11.1114H4.01689C3.43226 11.1114 2.95812 11.5977 2.95812 12.1973V19.6554C2.95848 20.2551 3.43262 20.741 4.01726 20.741H5.87228C6.45692 20.741 6.93106 20.2547 6.93106 19.6551L6.9307 12.1973Z" fill="white"/>
<path d="M16.6808 19.6549C16.6808 21.0727 15.5599 22.2223 14.1776 22.2223H12.3226C10.9402 22.2223 9.81934 21.0727 9.81934 19.6549V8.12307C9.81934 6.70529 10.9402 5.55566 12.3226 5.55566H14.1776C15.5599 5.55566 16.6808 6.70529 16.6808 8.12307V19.6549ZM15.2364 8.12307C15.2364 7.52344 14.7622 7.03715 14.1776 7.03715H12.3226C11.7379 7.03715 11.2638 7.52344 11.2638 8.12307V19.6553C11.2638 20.2549 11.7379 20.7412 12.3226 20.7412H14.1776C14.7622 20.7412 15.2364 20.2549 15.2364 19.6553V8.12307Z" fill="white"/>
<path d="M20.2241 7.03743C20.0244 7.03743 19.9316 6.87188 19.9316 6.66706V4.43077C19.9316 3.7041 20.5134 3.7041 20.7499 3.7041H21.6C21.7993 3.7041 21.9611 3.86966 21.9611 4.07447C21.9611 4.27929 21.7993 4.44484 21.6 4.44484H20.7499C20.6286 4.44484 20.5582 4.45077 20.5174 4.45781L20.5509 6.66706C20.5509 6.87188 20.4235 7.03743 20.2241 7.03743Z" fill="white"/>
<path d="M20.1551 7.84493C20.0608 7.84493 19.9669 7.80419 19.8987 7.73752C19.8333 7.66752 19.7939 7.57085 19.7939 7.47456C19.7939 7.37826 19.8333 7.28196 19.8987 7.21159C20.0359 7.07085 20.2778 7.07456 20.4114 7.21159C20.4764 7.28196 20.5162 7.37456 20.5162 7.47456C20.5162 7.57085 20.4764 7.66752 20.4114 7.73752C20.3425 7.80382 20.2486 7.84493 20.1551 7.84493Z" fill="white"/>
<path d="M24.6251 19.6548C24.6251 21.0726 23.5043 22.2222 22.1219 22.2222H20.2669C18.8846 22.2222 17.7637 21.0726 17.7637 19.6548V4.04885C17.764 2.63107 18.8849 1.48145 20.2673 1.48145H22.1223C23.5046 1.48145 24.6255 2.63107 24.6255 4.04885L24.6251 19.6548ZM23.1807 4.04885C23.1807 3.44922 22.7069 2.96293 22.1223 2.96293H20.2673C19.6826 2.96293 19.2085 3.44922 19.2085 4.04885V19.6551C19.2085 20.2548 19.6826 20.7411 20.2673 20.7411H22.1223C22.7069 20.7411 23.1811 20.2548 23.1811 19.6551L23.1807 4.04885Z" fill="white"/>
</svg>
