<svg width="27" height="27" viewBox="0 0 27 27" fill="none" xmlns="http://www.w3.org/2000/svg">
<path d="M2.81174 10.125H24.1867M11.2492 3.375L8.99924 10.125L13.4992 23.0625L17.9992 10.125L15.7492 3.375M14.1906 22.7953L24.269 10.7012C24.4399 10.4962 24.5253 10.3937 24.5579 10.2793C24.5867 10.1784 24.5867 10.0716 24.5579 9.97068C24.5253 9.85628 24.4399 9.75381 24.269 9.54883L19.3941 3.69883C19.2949 3.57979 19.2454 3.52028 19.1845 3.4775C19.1306 3.43959 19.0705 3.41143 19.007 3.39432C18.9351 3.375 18.8577 3.375 18.7027 3.375H8.29577C8.14082 3.375 8.06335 3.375 7.99155 3.39432C7.92794 3.41143 7.86784 3.43959 7.81396 3.4775C7.75316 3.52028 7.70356 3.57979 7.60437 3.69883L2.72938 9.54883C2.55857 9.7538 2.47316 9.85628 2.44052 9.97068C2.41175 10.0716 2.41175 10.1784 2.44052 10.2793C2.47316 10.3937 2.55857 10.4962 2.72938 10.7012L12.8079 22.7953C13.0453 23.0803 13.1639 23.2227 13.3061 23.2747C13.4308 23.3202 13.5676 23.3202 13.6924 23.2747C13.8344 23.2227 13.9532 23.0803 14.1906 22.7953Z" stroke="white" stroke-width="1.7" stroke-linecap="round" stroke-linejoin="round"/>
</svg>
