<svg width="28" height="28" viewBox="0 0 28 28" fill="none" xmlns="http://www.w3.org/2000/svg">
<path fill-rule="evenodd" clip-rule="evenodd" d="M2.625 7C2.625 6.51676 3.01675 6.125 3.5 6.125H24.5C24.9832 6.125 25.375 6.51676 25.375 7C25.375 7.48325 24.9832 7.875 24.5 7.875H3.5C3.01675 7.875 2.625 7.48325 2.625 7ZM2.625 11.6667C2.625 11.1834 3.01675 10.7917 3.5 10.7917H24.5C24.9832 10.7917 25.375 11.1834 25.375 11.6667C25.375 12.1499 24.9832 12.5417 24.5 12.5417H3.5C3.01675 12.5417 2.625 12.1499 2.625 11.6667ZM22.4062 15.6836L22.5106 15.7439C23.4309 16.2751 24.1936 16.7155 24.7376 17.1278C25.2919 17.5478 25.7892 18.0609 25.9184 18.7942C25.9716 19.0958 25.9716 19.4042 25.9184 19.7058C25.7892 20.4391 25.2919 20.9522 24.7376 21.3722C24.1936 21.7845 23.4309 22.2249 22.5105 22.7562L22.4062 22.8164C21.4859 23.3478 20.723 23.7882 20.0941 24.0532C19.4531 24.3233 18.7602 24.4973 18.0606 24.2426C17.7728 24.1379 17.5056 23.9836 17.271 23.7868C16.7006 23.3081 16.5049 22.621 16.4183 21.931C16.3333 21.2538 16.3333 20.3729 16.3333 19.3103V19.1897C16.3333 18.1271 16.3333 17.2463 16.4183 16.569C16.5049 15.879 16.7006 15.1919 17.271 14.7132C17.5056 14.5164 17.7728 14.3621 18.0606 14.2574C18.7602 14.0027 19.4531 14.1768 20.0941 14.4468C20.723 14.7118 21.4859 15.1522 22.4062 15.6836ZM19.4146 16.0595C18.8991 15.8423 18.7262 15.8774 18.6591 15.9019C18.5632 15.9368 18.4741 15.9882 18.3959 16.0538C18.3412 16.0998 18.2244 16.2318 18.1546 16.7869C18.085 17.342 18.0833 18.1117 18.0833 19.25C18.0833 20.3883 18.085 21.158 18.1546 21.7131C18.2244 22.2682 18.3412 22.4002 18.3959 22.4462C18.4741 22.5118 18.5632 22.5632 18.6591 22.5981C18.7262 22.6226 18.8991 22.6577 19.4146 22.4405C19.9302 22.2233 20.5975 21.8399 21.5833 21.2708C22.5692 20.7016 23.2349 20.3153 23.6808 19.9774C24.1267 19.6396 24.1827 19.4723 24.195 19.4019C24.2128 19.3015 24.2128 19.1986 24.195 19.0981C24.1827 19.0278 24.1267 18.8605 23.6808 18.5226C23.2349 18.1847 22.5692 17.7984 21.5833 17.2292C20.5975 16.6601 19.9302 16.2768 19.4146 16.0595ZM2.625 16.3333C2.625 15.8501 3.01675 15.4583 3.5 15.4583H12.8333C13.3166 15.4583 13.7083 15.8501 13.7083 16.3333C13.7083 16.8166 13.3166 17.2083 12.8333 17.2083H3.5C3.01675 17.2083 2.625 16.8166 2.625 16.3333ZM2.625 21C2.625 20.5168 3.01675 20.125 3.5 20.125H12.8333C13.3166 20.125 13.7083 20.5168 13.7083 21C13.7083 21.4832 13.3166 21.875 12.8333 21.875H3.5C3.01675 21.875 2.625 21.4832 2.625 21Z" fill="white"/>
</svg>
