<svg width="25" height="25" viewBox="0 0 25 25" fill="none" xmlns="http://www.w3.org/2000/svg">
<path d="M2.4825 14.368C2.01788 11.0726 1.78558 9.42496 2.77292 8.35848C3.76027 7.29199 5.51799 7.29199 9.03341 7.29199H15.9659C19.4813 7.29199 21.239 7.29199 22.2264 8.35848C23.2137 9.42496 22.9814 11.0726 22.5169 14.368L22.0762 17.493C21.7119 20.0773 21.5298 21.3694 20.5952 22.1432C19.6606 22.917 18.2822 22.917 15.5253 22.917H9.47401C6.71718 22.917 5.33877 22.917 4.4042 22.1432C3.46962 21.3694 3.28745 20.0773 2.92309 17.493L2.4825 14.368Z" stroke="white" stroke-width="1.5625"/>
<path d="M12.5 17.7083C12.5 18.5712 11.8004 19.2708 10.9375 19.2708C10.0746 19.2708 9.375 18.5712 9.375 17.7083C9.375 16.8454 10.0746 16.1458 10.9375 16.1458C11.8004 16.1458 12.5 16.8454 12.5 17.7083ZM12.5 17.7083V10.9375C12.5 12.6634 14.4744 14.0625 15.625 14.0625" stroke="white" stroke-width="1.3" stroke-linecap="round" stroke-linejoin="round"/>
<path opacity="0.5" d="M20.3768 7.29134C20.615 5.93221 19.5691 4.68717 18.1893 4.68717H6.81034C5.43049 4.68717 4.38465 5.93221 4.62279 7.29134M18.2291 4.68717C18.2587 4.4173 18.2735 4.28233 18.2737 4.17087C18.2761 3.10459 17.4729 2.20867 16.4126 2.0949C16.3018 2.08301 16.1661 2.08301 15.8946 2.08301H9.10524C8.83374 2.08301 8.69798 2.08301 8.58715 2.0949C7.52696 2.20867 6.7238 3.10459 6.72613 4.17086C6.72637 4.28233 6.74115 4.41728 6.7707 4.68717" stroke="white" stroke-width="1.5625"/>
</svg>
